<mxfile host="app.diagrams.net" modified="2021-09-01T04:15:26.555Z" agent="5.0 (Windows NT 10.0; Win64; x64) AppleWebKit/537.36 (KHTML, like Gecko) Chrome/92.0.4515.159 Safari/537.36 Edg/92.0.902.84" etag="Qu7pdANsta8PDJFew-WG" version="15.0.3" type="github">
  <diagram id="YztOMZqRNjCZVYt_EYAs" name="Page-1">
    <mxGraphModel dx="838" dy="469" grid="1" gridSize="10" guides="1" tooltips="1" connect="1" arrows="1" fold="1" page="1" pageScale="1" pageWidth="827" pageHeight="1169" math="0" shadow="0">
      <root>
        <mxCell id="0" />
        <mxCell id="1" parent="0" />
        <mxCell id="ed0Cr6qEdPq9sL8ti0eW-55" style="edgeStyle=orthogonalEdgeStyle;rounded=0;orthogonalLoop=1;jettySize=auto;html=1;exitX=0.5;exitY=1;exitDx=0;exitDy=0;entryX=0.49;entryY=0;entryDx=0;entryDy=0;entryPerimeter=0;" edge="1" parent="1" source="ed0Cr6qEdPq9sL8ti0eW-13" target="ed0Cr6qEdPq9sL8ti0eW-3">
          <mxGeometry relative="1" as="geometry" />
        </mxCell>
        <mxCell id="ed0Cr6qEdPq9sL8ti0eW-13" value="" style="rounded=0;whiteSpace=wrap;html=1;fillColor=#f5f5f5;strokeColor=#666666;fontColor=#333333;" vertex="1" parent="1">
          <mxGeometry x="130" y="210" width="540" height="180" as="geometry" />
        </mxCell>
        <mxCell id="ed0Cr6qEdPq9sL8ti0eW-43" style="edgeStyle=orthogonalEdgeStyle;rounded=0;orthogonalLoop=1;jettySize=auto;html=1;exitX=1;exitY=0.5;exitDx=0;exitDy=0;entryX=0;entryY=0.5;entryDx=0;entryDy=0;" edge="1" parent="1" source="ed0Cr6qEdPq9sL8ti0eW-15" target="ed0Cr6qEdPq9sL8ti0eW-16">
          <mxGeometry relative="1" as="geometry" />
        </mxCell>
        <mxCell id="ed0Cr6qEdPq9sL8ti0eW-15" value="" style="rounded=0;whiteSpace=wrap;html=1;" vertex="1" parent="1">
          <mxGeometry x="150" y="250" width="150" height="120" as="geometry" />
        </mxCell>
        <mxCell id="ed0Cr6qEdPq9sL8ti0eW-49" style="edgeStyle=orthogonalEdgeStyle;rounded=0;orthogonalLoop=1;jettySize=auto;html=1;exitX=1;exitY=0.5;exitDx=0;exitDy=0;entryX=0;entryY=0.5;entryDx=0;entryDy=0;" edge="1" parent="1" source="ed0Cr6qEdPq9sL8ti0eW-16" target="ed0Cr6qEdPq9sL8ti0eW-17">
          <mxGeometry relative="1" as="geometry" />
        </mxCell>
        <mxCell id="ed0Cr6qEdPq9sL8ti0eW-16" value="" style="rounded=0;whiteSpace=wrap;html=1;" vertex="1" parent="1">
          <mxGeometry x="325" y="250" width="150" height="120" as="geometry" />
        </mxCell>
        <mxCell id="ed0Cr6qEdPq9sL8ti0eW-17" value="" style="rounded=0;whiteSpace=wrap;html=1;" vertex="1" parent="1">
          <mxGeometry x="500" y="250" width="150" height="120" as="geometry" />
        </mxCell>
        <mxCell id="ed0Cr6qEdPq9sL8ti0eW-53" style="edgeStyle=orthogonalEdgeStyle;rounded=0;orthogonalLoop=1;jettySize=auto;html=1;exitX=0.5;exitY=1;exitDx=0;exitDy=0;entryX=0.5;entryY=0;entryDx=0;entryDy=0;" edge="1" parent="1" source="ed0Cr6qEdPq9sL8ti0eW-1" target="ed0Cr6qEdPq9sL8ti0eW-13">
          <mxGeometry relative="1" as="geometry" />
        </mxCell>
        <mxCell id="ed0Cr6qEdPq9sL8ti0eW-1" value="Briefing, Consent collection, Tutorials, &lt;br&gt;&lt;span&gt;&lt;span lang=&quot;EN-US&quot; style=&quot;line-height: 150%&quot;&gt;&lt;font face=&quot;Arial&quot;&gt;Pre-Experiment Questionnaire&amp;nbsp;&lt;/font&gt;&lt;/span&gt;&lt;/span&gt;(Demographic information + AIT Pretest)" style="rounded=0;whiteSpace=wrap;html=1;" vertex="1" parent="1">
          <mxGeometry x="130" y="100" width="540" height="90" as="geometry" />
        </mxCell>
        <mxCell id="ed0Cr6qEdPq9sL8ti0eW-3" value="&lt;font face=&quot;Arial&quot;&gt;Interview&lt;/font&gt;" style="rounded=0;whiteSpace=wrap;html=1;" vertex="1" parent="1">
          <mxGeometry x="130" y="410" width="540" height="60" as="geometry" />
        </mxCell>
        <mxCell id="ed0Cr6qEdPq9sL8ti0eW-4" value="&lt;font face=&quot;Arial&quot;&gt;Condition A&lt;/font&gt;" style="rounded=0;whiteSpace=wrap;html=1;fillColor=#f5f5f5;strokeColor=#666666;fontColor=#333333;" vertex="1" parent="1">
          <mxGeometry x="165" y="260" width="120" height="20" as="geometry" />
        </mxCell>
        <mxCell id="ed0Cr6qEdPq9sL8ti0eW-5" value="&lt;span style=&quot;font-family: &amp;#34;arial&amp;#34;&quot;&gt;Condition B&lt;/span&gt;" style="rounded=0;whiteSpace=wrap;html=1;fillColor=#f5f5f5;strokeColor=#666666;fontColor=#333333;" vertex="1" parent="1">
          <mxGeometry x="340" y="260" width="120" height="20" as="geometry" />
        </mxCell>
        <mxCell id="ed0Cr6qEdPq9sL8ti0eW-6" value="&lt;span style=&quot;font-family: &amp;#34;arial&amp;#34;&quot;&gt;Condition C&lt;/span&gt;" style="rounded=0;whiteSpace=wrap;html=1;fillColor=#f5f5f5;strokeColor=#666666;fontColor=#333333;" vertex="1" parent="1">
          <mxGeometry x="515" y="260" width="120" height="20" as="geometry" />
        </mxCell>
        <mxCell id="ed0Cr6qEdPq9sL8ti0eW-7" value="&lt;font face=&quot;Arial&quot;&gt;AIT&lt;/font&gt;" style="rounded=0;whiteSpace=wrap;html=1;fillColor=#f5f5f5;strokeColor=#666666;fontColor=#333333;" vertex="1" parent="1">
          <mxGeometry x="165" y="310" width="120" height="20" as="geometry" />
        </mxCell>
        <mxCell id="ed0Cr6qEdPq9sL8ti0eW-8" value="&lt;span style=&quot;font-family: &amp;#34;arial&amp;#34;&quot;&gt;AIT&lt;/span&gt;" style="rounded=0;whiteSpace=wrap;html=1;fillColor=#f5f5f5;strokeColor=#666666;fontColor=#333333;" vertex="1" parent="1">
          <mxGeometry x="340" y="310" width="120" height="20" as="geometry" />
        </mxCell>
        <mxCell id="ed0Cr6qEdPq9sL8ti0eW-9" value="&lt;span style=&quot;font-family: &amp;#34;arial&amp;#34;&quot;&gt;AIT&lt;/span&gt;" style="rounded=0;whiteSpace=wrap;html=1;fillColor=#f5f5f5;strokeColor=#666666;fontColor=#333333;" vertex="1" parent="1">
          <mxGeometry x="515" y="310" width="120" height="20" as="geometry" />
        </mxCell>
        <mxCell id="ed0Cr6qEdPq9sL8ti0eW-10" value="IMI &amp;amp; UES" style="rounded=0;whiteSpace=wrap;html=1;fillColor=#f5f5f5;strokeColor=#666666;fontColor=#333333;" vertex="1" parent="1">
          <mxGeometry x="165" y="340" width="120" height="20" as="geometry" />
        </mxCell>
        <mxCell id="ed0Cr6qEdPq9sL8ti0eW-11" value="&lt;span&gt;IMI &amp;amp; UES&lt;/span&gt;" style="rounded=0;whiteSpace=wrap;html=1;fillColor=#f5f5f5;strokeColor=#666666;fontColor=#333333;" vertex="1" parent="1">
          <mxGeometry x="340" y="340" width="120" height="20" as="geometry" />
        </mxCell>
        <mxCell id="ed0Cr6qEdPq9sL8ti0eW-12" value="&lt;span&gt;IMI &amp;amp; UES&lt;/span&gt;" style="rounded=0;whiteSpace=wrap;html=1;fillColor=#f5f5f5;strokeColor=#666666;fontColor=#333333;" vertex="1" parent="1">
          <mxGeometry x="515" y="340" width="120" height="20" as="geometry" />
        </mxCell>
        <mxCell id="ed0Cr6qEdPq9sL8ti0eW-18" value="&lt;font face=&quot;Arial&quot;&gt;L&lt;/font&gt;" style="rounded=0;whiteSpace=wrap;html=1;fontColor=#000000;fillColor=#ffcc66;" vertex="1" parent="1">
          <mxGeometry x="165" y="280" width="20" height="20" as="geometry" />
        </mxCell>
        <mxCell id="ed0Cr6qEdPq9sL8ti0eW-25" value="&lt;span style=&quot;font-family: &amp;#34;arial&amp;#34;&quot;&gt;L&lt;/span&gt;" style="rounded=0;whiteSpace=wrap;html=1;fontColor=#000000;fillColor=#FFCC66;" vertex="1" parent="1">
          <mxGeometry x="185" y="280" width="20" height="20" as="geometry" />
        </mxCell>
        <mxCell id="ed0Cr6qEdPq9sL8ti0eW-27" value="&lt;font face=&quot;Arial&quot;&gt;P&lt;/font&gt;" style="rounded=0;whiteSpace=wrap;html=1;fillColor=#FF6666;" vertex="1" parent="1">
          <mxGeometry x="205" y="280" width="20" height="20" as="geometry" />
        </mxCell>
        <mxCell id="ed0Cr6qEdPq9sL8ti0eW-28" value="&lt;font face=&quot;Arial&quot;&gt;P&lt;/font&gt;" style="rounded=0;whiteSpace=wrap;html=1;fillColor=#ff6666;" vertex="1" parent="1">
          <mxGeometry x="224" y="280" width="22" height="20" as="geometry" />
        </mxCell>
        <mxCell id="ed0Cr6qEdPq9sL8ti0eW-29" value="&lt;font face=&quot;Arial&quot;&gt;C&lt;/font&gt;" style="rounded=0;whiteSpace=wrap;html=1;fillColor=#66ccff;" vertex="1" parent="1">
          <mxGeometry x="245" y="280" width="20" height="20" as="geometry" />
        </mxCell>
        <mxCell id="ed0Cr6qEdPq9sL8ti0eW-30" value="&lt;span style=&quot;font-family: &amp;#34;arial&amp;#34;&quot;&gt;C&lt;/span&gt;" style="rounded=0;whiteSpace=wrap;html=1;fillColor=#66ccff;" vertex="1" parent="1">
          <mxGeometry x="265" y="280" width="20" height="20" as="geometry" />
        </mxCell>
        <mxCell id="ed0Cr6qEdPq9sL8ti0eW-31" value="&lt;span style=&quot;font-family: &amp;#34;arial&amp;#34;&quot;&gt;P&lt;/span&gt;" style="rounded=0;whiteSpace=wrap;html=1;fillColor=#FF6666;" vertex="1" parent="1">
          <mxGeometry x="340" y="280" width="20" height="20" as="geometry" />
        </mxCell>
        <mxCell id="ed0Cr6qEdPq9sL8ti0eW-32" value="&lt;span style=&quot;font-family: &amp;#34;arial&amp;#34;&quot;&gt;C&lt;/span&gt;" style="rounded=0;whiteSpace=wrap;html=1;fillColor=#66CCFF;" vertex="1" parent="1">
          <mxGeometry x="360" y="280" width="20" height="20" as="geometry" />
        </mxCell>
        <mxCell id="ed0Cr6qEdPq9sL8ti0eW-33" value="&lt;span style=&quot;font-family: &amp;#34;arial&amp;#34;&quot;&gt;L&lt;/span&gt;" style="rounded=0;whiteSpace=wrap;html=1;fillColor=#FFCC66;" vertex="1" parent="1">
          <mxGeometry x="380" y="280" width="20" height="20" as="geometry" />
        </mxCell>
        <mxCell id="ed0Cr6qEdPq9sL8ti0eW-34" value="&lt;span style=&quot;font-family: &amp;#34;arial&amp;#34;&quot;&gt;C&lt;/span&gt;" style="rounded=0;whiteSpace=wrap;html=1;fillColor=#66CCFF;" vertex="1" parent="1">
          <mxGeometry x="400" y="280" width="20" height="20" as="geometry" />
        </mxCell>
        <mxCell id="ed0Cr6qEdPq9sL8ti0eW-35" value="&lt;span style=&quot;font-family: &amp;#34;arial&amp;#34;&quot;&gt;L&lt;/span&gt;" style="rounded=0;whiteSpace=wrap;html=1;fillColor=#FFCC66;" vertex="1" parent="1">
          <mxGeometry x="420" y="280" width="20" height="20" as="geometry" />
        </mxCell>
        <mxCell id="ed0Cr6qEdPq9sL8ti0eW-36" value="&lt;span style=&quot;font-family: &amp;#34;arial&amp;#34;&quot;&gt;P&lt;/span&gt;" style="rounded=0;whiteSpace=wrap;html=1;fillColor=#FF6666;" vertex="1" parent="1">
          <mxGeometry x="440" y="280" width="20" height="20" as="geometry" />
        </mxCell>
        <mxCell id="ed0Cr6qEdPq9sL8ti0eW-37" value="&lt;span style=&quot;font-family: &amp;#34;arial&amp;#34;&quot;&gt;C&lt;/span&gt;" style="rounded=0;whiteSpace=wrap;html=1;fillColor=#66CCFF;" vertex="1" parent="1">
          <mxGeometry x="515" y="280" width="20" height="20" as="geometry" />
        </mxCell>
        <mxCell id="ed0Cr6qEdPq9sL8ti0eW-39" value="&lt;span style=&quot;font-family: &amp;#34;arial&amp;#34;&quot;&gt;C&lt;/span&gt;" style="rounded=0;whiteSpace=wrap;html=1;fillColor=#66CCFF;" vertex="1" parent="1">
          <mxGeometry x="555" y="280" width="20" height="20" as="geometry" />
        </mxCell>
        <mxCell id="ed0Cr6qEdPq9sL8ti0eW-40" value="&lt;span style=&quot;font-family: &amp;#34;arial&amp;#34;&quot;&gt;L&lt;/span&gt;" style="rounded=0;whiteSpace=wrap;html=1;fillColor=#FFCC66;" vertex="1" parent="1">
          <mxGeometry x="575" y="280" width="20" height="20" as="geometry" />
        </mxCell>
        <mxCell id="ed0Cr6qEdPq9sL8ti0eW-41" value="&lt;span style=&quot;font-family: &amp;#34;arial&amp;#34;&quot;&gt;P&lt;/span&gt;" style="rounded=0;whiteSpace=wrap;html=1;fillColor=#FF6666;" vertex="1" parent="1">
          <mxGeometry x="595" y="280" width="20" height="20" as="geometry" />
        </mxCell>
        <mxCell id="ed0Cr6qEdPq9sL8ti0eW-42" value="&lt;span style=&quot;font-family: &amp;#34;arial&amp;#34;&quot;&gt;L&lt;/span&gt;" style="rounded=0;whiteSpace=wrap;html=1;fillColor=#FFCC66;" vertex="1" parent="1">
          <mxGeometry x="615" y="280" width="20" height="20" as="geometry" />
        </mxCell>
        <mxCell id="ed0Cr6qEdPq9sL8ti0eW-52" value="&lt;span style=&quot;font-family: &amp;#34;arial&amp;#34;&quot;&gt;P&lt;/span&gt;" style="rounded=0;whiteSpace=wrap;html=1;fillColor=#FF6666;" vertex="1" parent="1">
          <mxGeometry x="535" y="280" width="20" height="20" as="geometry" />
        </mxCell>
        <mxCell id="ed0Cr6qEdPq9sL8ti0eW-56" value="&lt;font face=&quot;Arial&quot;&gt;10 min&lt;/font&gt;" style="text;html=1;strokeColor=none;fillColor=none;align=center;verticalAlign=middle;whiteSpace=wrap;rounded=0;" vertex="1" parent="1">
          <mxGeometry x="670" y="415" width="70" height="50" as="geometry" />
        </mxCell>
        <mxCell id="ed0Cr6qEdPq9sL8ti0eW-57" value="&lt;font face=&quot;Arial&quot;&gt;30 min&lt;/font&gt;" style="text;html=1;strokeColor=none;fillColor=none;align=center;verticalAlign=middle;whiteSpace=wrap;rounded=0;" vertex="1" parent="1">
          <mxGeometry x="670" y="275" width="70" height="50" as="geometry" />
        </mxCell>
        <mxCell id="ed0Cr6qEdPq9sL8ti0eW-58" value="&lt;font face=&quot;Arial&quot;&gt;15 min&lt;/font&gt;" style="text;html=1;strokeColor=none;fillColor=none;align=center;verticalAlign=middle;whiteSpace=wrap;rounded=0;" vertex="1" parent="1">
          <mxGeometry x="670" y="120" width="70" height="50" as="geometry" />
        </mxCell>
        <mxCell id="ed0Cr6qEdPq9sL8ti0eW-60" value="&lt;font face=&quot;arial&quot;&gt;Three Experimental Sessions&lt;/font&gt;" style="text;html=1;strokeColor=none;fillColor=none;align=center;verticalAlign=middle;whiteSpace=wrap;rounded=0;" vertex="1" parent="1">
          <mxGeometry x="236" y="210" width="340" height="40" as="geometry" />
        </mxCell>
        <mxCell id="ed0Cr6qEdPq9sL8ti0eW-61" value="&lt;font face=&quot;Arial&quot;&gt;L&lt;/font&gt;" style="rounded=0;whiteSpace=wrap;html=1;fontColor=#000000;fillColor=#ffcc66;" vertex="1" parent="1">
          <mxGeometry x="241" y="495" width="20" height="20" as="geometry" />
        </mxCell>
        <mxCell id="ed0Cr6qEdPq9sL8ti0eW-62" value="&lt;font face=&quot;Arial&quot;&gt;P&lt;/font&gt;" style="rounded=0;whiteSpace=wrap;html=1;fillColor=#FF6666;" vertex="1" parent="1">
          <mxGeometry x="341.5" y="495" width="20" height="20" as="geometry" />
        </mxCell>
        <mxCell id="ed0Cr6qEdPq9sL8ti0eW-63" value="&lt;span style=&quot;font-family: &amp;#34;arial&amp;#34;&quot;&gt;C&lt;/span&gt;" style="rounded=0;whiteSpace=wrap;html=1;fillColor=#66ccff;" vertex="1" parent="1">
          <mxGeometry x="465" y="495" width="20" height="20" as="geometry" />
        </mxCell>
        <mxCell id="ed0Cr6qEdPq9sL8ti0eW-64" value="&lt;font face=&quot;Arial&quot;&gt;Leaflet&lt;/font&gt;" style="text;html=1;strokeColor=none;fillColor=none;align=center;verticalAlign=middle;whiteSpace=wrap;rounded=0;" vertex="1" parent="1">
          <mxGeometry x="253" y="480" width="70" height="50" as="geometry" />
        </mxCell>
        <mxCell id="ed0Cr6qEdPq9sL8ti0eW-65" value="&lt;font face=&quot;Arial&quot;&gt;Postcard AR&lt;/font&gt;" style="text;html=1;strokeColor=none;fillColor=none;align=center;verticalAlign=middle;whiteSpace=wrap;rounded=0;" vertex="1" parent="1">
          <mxGeometry x="360.5" y="480" width="81" height="50" as="geometry" />
        </mxCell>
        <mxCell id="ed0Cr6qEdPq9sL8ti0eW-66" value="&lt;font face=&quot;Arial&quot;&gt;CubeMuseum AR&lt;/font&gt;" style="text;html=1;strokeColor=none;fillColor=none;align=center;verticalAlign=middle;whiteSpace=wrap;rounded=0;" vertex="1" parent="1">
          <mxGeometry x="481" y="480" width="114" height="50" as="geometry" />
        </mxCell>
      </root>
    </mxGraphModel>
  </diagram>
</mxfile>
